{
  "source": "C:\\Users\\Peter\\Desktop\\stuff\\MIUN\\quantitative_research\\video_compression\\videos\\BVI-HD\\BVI-HD_CDVL_videos\\ORIG\\PaintingTilting_1920x1080_60fps.mp4",
  "output": "C:\\Users\\Peter\\Desktop\\stuff\\MIUN\\quantitative_research\\video_compression\\compressed_videos\\BVI-HD\\vp9\\1.5\\PaintingTilting_1920x1080_60fps_vp9.webm",
  "codec": "vp9",
  "ok": "Input #0, mov,mp4,m4a,3gp,3g2,mj2, from 'C:\\Users\\Peter\\Desktop\\stuff\\MIUN\\quantitative_research\\video_compression\\videos\\BVI-HD\\BVI-HD_CDVL_videos\\ORIG\\PaintingTilting_1920x1080_60fps.mp4':\n  Metadata:\n    major_brand     : isom\n    minor_version   : 512\n    compatible_brands: isomiso2avc1mp41\n    encoder         : Lavf54.28.101\n  Duration: 00:00:05.00, start: 0.000000, bitrate: 667707 kb/s\n  Stream #0:0[0x1](und): Video: h264 (High 4:4:4 Predictive) (avc1 / 0x31637661), yuv420p(progressive), 1920x1080, 667702 kb/s, 60 fps, 60 tbr, 60 tbn (default)\n    Metadata:\n      handler_name    : VideoHandler\n      vendor_id       : [0][0][0][0]\n[out#0/webm @ 00000298b8b39100] Codec AVOption b:a (set bitrate (in bits/s)) has not been used for any stream. The most likely reason is either wrong type (e.g. a video option with no video streams) or that it is a private option of some decoder which was not actually used for any stream.\nStream mapping:\n  Stream #0:0 -> #0:0 (h264 (native) -> vp9 (libvpx-vp9))\nPress [q] to stop, [?] for help\n[libvpx-vp9 @ 00000298b97400c0] v1.15.2-100-g40561f514\nOutput #0, webm, to 'C:\\Users\\Peter\\Desktop\\stuff\\MIUN\\quantitative_research\\video_compression\\compressed_videos\\BVI-HD\\vp9\\1.5\\PaintingTilting_1920x1080_60fps_vp9.webm':\n  Metadata:\n    major_brand     : isom\n    minor_version   : 512\n    compatible_brands: isomiso2avc1mp41\n    encoder         : Lavf62.3.100\n  Stream #0:0(und): Video: vp9, yuv420p(tv, progressive), 1920x1080, q=2-31, 1500 kb/s, 60 fps, 1k tbn (default)\n    Metadata:\n      encoder         : Lavc62.11.100 libvpx-vp9\n      handler_name    : VideoHandler\n      vendor_id       : [0][0][0][0]\n    Side data:\n      cpb: bitrate max/min/avg: 0/0/0 buffer size: 1500000 vbv_delay: N/A\nframe=    0 fps=0.0 q=0.0 size=       0KiB time=N/A bitrate=N/A speed=N/A elapsed=0:00:00.52    \nframe=    4 fps=3.8 q=56.0 size=       1KiB time=00:00:00.06 bitrate=  76.0kbits/s speed=0.0633x elapsed=0:00:01.05    \nframe=   11 fps=6.8 q=45.0 size=       1KiB time=00:00:00.18 bitrate=  27.6kbits/s speed=0.114x elapsed=0:00:01.60    \nframe=   15 fps=7.0 q=42.0 size=       1KiB time=00:00:00.25 bitrate=  20.3kbits/s speed=0.117x elapsed=0:00:02.14    \nframe=   19 fps=7.1 q=42.0 size=       1KiB time=00:00:00.31 bitrate=  16.0kbits/s speed=0.118x elapsed=0:00:02.69    \nframe=   23 fps=7.2 q=42.0 size=       1KiB time=00:00:00.36 bitrate=  13.8kbits/s speed=0.114x elapsed=0:00:03.21    \nframe=   26 fps=6.9 q=43.0 size=       1KiB time=00:00:00.43 bitrate=  11.7kbits/s speed=0.115x elapsed=0:00:03.76    \nframe=   31 fps=7.2 q=41.0 size=       1KiB time=00:00:00.51 bitrate=   9.8kbits/s speed=0.12x elapsed=0:00:04.31    \nframe=   35 fps=7.2 q=42.0 size=       1KiB time=00:00:00.58 bitrate=   8.7kbits/s speed=0.12x elapsed=0:00:04.84    \nframe=   39 fps=7.3 q=39.0 size=       1KiB time=00:00:00.65 bitrate=   7.8kbits/s speed=0.121x elapsed=0:00:05.36    \nframe=   44 fps=7.5 q=40.0 size=       1KiB time=00:00:00.73 bitrate=   6.9kbits/s speed=0.124x elapsed=0:00:05.89    \nframe=   48 fps=7.4 q=40.0 size=       1KiB time=00:00:00.80 bitrate=   6.3kbits/s speed=0.124x elapsed=0:00:06.44    \nframe=   53 fps=7.6 q=38.0 size=       1KiB time=00:00:00.88 bitrate=   5.7kbits/s speed=0.127x elapsed=0:00:06.97    \nframe=   58 fps=7.7 q=39.0 size=       1KiB time=00:00:00.96 bitrate=   5.2kbits/s speed=0.128x elapsed=0:00:07.52    \nframe=   62 fps=7.7 q=40.0 size=       1KiB time=00:00:01.03 bitrate=   4.9kbits/s speed=0.128x elapsed=0:00:08.07    \nframe=   66 fps=7.7 q=39.0 size=       1KiB time=00:00:01.10 bitrate=   4.6kbits/s speed=0.128x elapsed=0:00:08.61    \nframe=   70 fps=7.6 q=41.0 size=       1KiB time=00:00:01.16 bitrate=   4.3kbits/s speed=0.127x elapsed=0:00:09.16    \nframe=   74 fps=7.6 q=41.0 size=       1KiB time=00:00:01.23 bitrate=   4.1kbits/s speed=0.127x elapsed=0:00:09.70    \nframe=   78 fps=7.6 q=39.0 size=       1KiB time=00:00:01.30 bitrate=   3.9kbits/s speed=0.127x elapsed=0:00:10.24    \nframe=   81 fps=7.5 q=39.0 size=       1KiB time=00:00:01.35 bitrate=   3.8kbits/s speed=0.125x elapsed=0:00:10.79    \nframe=   85 fps=7.5 q=32.0 size=       1KiB time=00:00:01.41 bitrate=   3.6kbits/s speed=0.125x elapsed=0:00:11.32    \nframe=   88 fps=7.4 q=38.0 size=       1KiB time=00:00:01.46 bitrate=   3.5kbits/s speed=0.124x elapsed=0:00:11.83    \nframe=   93 fps=7.5 q=40.0 size=       1KiB time=00:00:01.55 bitrate=   3.3kbits/s speed=0.126x elapsed=0:00:12.34    \nframe=   96 fps=7.5 q=40.0 size=       1KiB time=00:00:01.60 bitrate=   3.2kbits/s speed=0.124x elapsed=0:00:12.88    \nframe=  100 fps=7.5 q=39.0 size=       1KiB time=00:00:01.66 bitrate=   3.0kbits/s speed=0.124x elapsed=0:00:13.42    \nframe=  104 fps=7.5 q=39.0 size=       1KiB time=00:00:01.73 bitrate=   2.9kbits/s speed=0.124x elapsed=0:00:13.94    \nframe=  108 fps=7.5 q=40.0 size=       1KiB time=00:00:01.80 bitrate=   2.8kbits/s speed=0.125x elapsed=0:00:14.45    \nframe=  112 fps=7.5 q=38.0 size=       1KiB time=00:00:01.86 bitrate=   2.7kbits/s speed=0.125x elapsed=0:00:14.98    \nframe=  116 fps=7.5 q=39.0 size=       1KiB time=00:00:01.93 bitrate=   2.6kbits/s speed=0.125x elapsed=0:00:15.50    \nframe=  120 fps=7.5 q=40.0 size=       1KiB time=00:00:02.00 bitrate=   2.5kbits/s speed=0.125x elapsed=0:00:16.02    \nframe=  124 fps=7.5 q=40.0 size=       1KiB time=00:00:02.06 bitrate=   2.5kbits/s speed=0.125x elapsed=0:00:16.58    \nframe=  128 fps=7.5 q=41.0 size=       1KiB time=00:00:02.13 bitrate=   2.4kbits/s speed=0.125x elapsed=0:00:17.10    \nframe=  132 fps=7.5 q=39.0 size=     512KiB time=00:00:02.20 bitrate=1906.5kbits/s speed=0.125x elapsed=0:00:17.64    \nframe=  136 fps=7.5 q=40.0 size=     512KiB time=00:00:02.26 bitrate=1850.4kbits/s speed=0.125x elapsed=0:00:18.15    \nframe=  140 fps=7.5 q=32.0 size=     512KiB time=00:00:02.33 bitrate=1797.6kbits/s speed=0.125x elapsed=0:00:18.68    \nframe=  144 fps=7.5 q=38.0 size=     512KiB time=00:00:02.40 bitrate=1747.6kbits/s speed=0.125x elapsed=0:00:19.21    \nframe=  148 fps=7.5 q=40.0 size=     512KiB time=00:00:02.46 bitrate=1700.4kbits/s speed=0.125x elapsed=0:00:19.75    \nframe=  151 fps=7.4 q=41.0 size=     512KiB time=00:00:02.51 bitrate=1666.6kbits/s speed=0.124x elapsed=0:00:20.30    \nframe=  155 fps=7.4 q=40.0 size=     512KiB time=00:00:02.58 bitrate=1623.6kbits/s speed=0.124x elapsed=0:00:20.83    \nframe=  159 fps=7.4 q=39.0 size=     512KiB time=00:00:02.65 bitrate=1582.8kbits/s speed=0.124x elapsed=0:00:21.38    \nframe=  163 fps=7.4 q=40.0 size=     512KiB time=00:00:02.71 bitrate=1543.9kbits/s speed=0.124x elapsed=0:00:21.90    \nframe=  166 fps=7.4 q=40.0 size=     512KiB time=00:00:02.76 bitrate=1516.0kbits/s speed=0.123x elapsed=0:00:22.42    \nframe=  171 fps=7.5 q=40.0 size=     512KiB time=00:00:02.85 bitrate=1471.7kbits/s speed=0.124x elapsed=0:00:22.94    \nframe=  175 fps=7.5 q=41.0 size=     512KiB time=00:00:02.91 bitrate=1438.0kbits/s speed=0.124x elapsed=0:00:23.48    \nframe=  179 fps=7.4 q=39.0 size=     512KiB time=00:00:02.98 bitrate=1405.9kbits/s speed=0.124x elapsed=0:00:24.03    \nframe=  183 fps=7.4 q=40.0 size=     512KiB time=00:00:03.05 bitrate=1375.2kbits/s speed=0.124x elapsed=0:00:24.56    \nframe=  187 fps=7.4 q=40.0 size=     512KiB time=00:00:03.11 bitrate=1345.8kbits/s speed=0.124x elapsed=0:00:25.12    \nframe=  191 fps=7.4 q=39.0 size=     512KiB time=00:00:03.18 bitrate=1317.6kbits/s speed=0.124x elapsed=0:00:25.68    \nframe=  195 fps=7.4 q=40.0 size=     512KiB time=00:00:03.25 bitrate=1290.6kbits/s speed=0.124x elapsed=0:00:26.20    \nframe=  199 fps=7.4 q=41.0 size=     512KiB time=00:00:03.31 bitrate=1264.6kbits/s speed=0.124x elapsed=0:00:26.72    \nframe=  204 fps=7.5 q=39.0 size=     512KiB time=00:00:03.40 bitrate=1233.6kbits/s speed=0.125x elapsed=0:00:27.23    \nframe=  208 fps=7.5 q=41.0 size=     512KiB time=00:00:03.46 bitrate=1209.9kbits/s speed=0.125x elapsed=0:00:27.77    \nframe=  211 fps=7.5 q=41.0 size=     512KiB time=00:00:03.51 bitrate=1192.7kbits/s speed=0.124x elapsed=0:00:28.30    \nframe=  215 fps=7.5 q=39.0 size=     512KiB time=00:00:03.58 bitrate=1170.5kbits/s speed=0.124x elapsed=0:00:28.85    \nframe=  219 fps=7.5 q=40.0 size=     512KiB time=00:00:03.63 bitrate=1154.4kbits/s speed=0.124x elapsed=0:00:29.38    \nframe=  221 fps=7.4 q=40.0 size=     512KiB time=00:00:03.68 bitrate=1138.7kbits/s speed=0.123x elapsed=0:00:29.96    \nframe=  223 fps=7.3 q=40.0 size=     512KiB time=00:00:03.71 bitrate=1128.5kbits/s speed=0.122x elapsed=0:00:30.58    \nframe=  225 fps=7.2 q=40.0 size=     512KiB time=00:00:03.75 bitrate=1118.5kbits/s speed=0.12x elapsed=0:00:31.22    \nframe=  227 fps=7.1 q=39.0 size=     512KiB time=00:00:03.78 bitrate=1108.6kbits/s speed=0.119x elapsed=0:00:31.81    \nframe=  230 fps=7.1 q=40.0 size=     512KiB time=00:00:03.83 bitrate=1094.2kbits/s speed=0.118x elapsed=0:00:32.40    \nframe=  233 fps=7.1 q=40.0 size=     512KiB time=00:00:03.88 bitrate=1080.1kbits/s speed=0.118x elapsed=0:00:32.92    \nframe=  237 fps=7.1 q=42.0 size=     512KiB time=00:00:03.95 bitrate=1061.8kbits/s speed=0.118x elapsed=0:00:33.45    \nframe=  240 fps=7.1 q=40.0 size=     512KiB time=00:00:04.00 bitrate=1048.6kbits/s speed=0.118x elapsed=0:00:34.03    \nframe=  243 fps=7.0 q=40.0 size=     512KiB time=00:00:04.05 bitrate=1035.6kbits/s speed=0.117x elapsed=0:00:34.61    \nframe=  245 fps=7.0 q=41.0 size=     512KiB time=00:00:04.08 bitrate=1027.2kbits/s speed=0.116x elapsed=0:00:35.20    \nframe=  248 fps=6.9 q=39.0 size=     512KiB time=00:00:04.13 bitrate=1014.8kbits/s speed=0.116x elapsed=0:00:35.77    \nframe=  251 fps=6.9 q=39.0 size=     512KiB time=00:00:04.18 bitrate=1002.6kbits/s speed=0.115x elapsed=0:00:36.33    \nframe=  253 fps=6.9 q=39.0 size=     512KiB time=00:00:04.21 bitrate= 994.7kbits/s speed=0.114x elapsed=0:00:36.87    \nframe=  256 fps=6.8 q=40.0 size=     512KiB time=00:00:04.26 bitrate= 983.0kbits/s speed=0.114x elapsed=0:00:37.46    \nframe=  257 fps=6.8 q=33.0 size=     512KiB time=00:00:04.28 bitrate= 979.2kbits/s speed=0.113x elapsed=0:00:38.06    \nframe=  259 fps=6.7 q=38.0 size=    1280KiB time=00:00:04.31 bitrate=2429.1kbits/s speed=0.112x elapsed=0:00:38.61    \nframe=  261 fps=6.7 q=38.0 size=    1280KiB time=00:00:04.35 bitrate=2410.5kbits/s speed=0.111x elapsed=0:00:39.18    \nframe=  264 fps=6.6 q=39.0 size=    1280KiB time=00:00:04.40 bitrate=2383.1kbits/s speed=0.111x elapsed=0:00:39.72    \nframe=  267 fps=6.6 q=40.0 size=    1280KiB time=00:00:04.45 bitrate=2356.4kbits/s speed=0.11x elapsed=0:00:40.28    \nframe=  269 fps=6.6 q=32.0 size=    1280KiB time=00:00:04.48 bitrate=2338.8kbits/s speed=0.109x elapsed=0:00:40.94    \nframe=  271 fps=6.5 q=40.0 size=    1280KiB time=00:00:04.51 bitrate=2321.6kbits/s speed=0.109x elapsed=0:00:41.47    \nframe=  273 fps=6.5 q=39.0 size=    1280KiB time=00:00:04.55 bitrate=2304.6kbits/s speed=0.108x elapsed=0:00:42.05    \nframe=  276 fps=6.5 q=40.0 size=    1280KiB time=00:00:04.60 bitrate=2279.5kbits/s speed=0.108x elapsed=0:00:42.57    \nframe=  276 fps=6.4 q=40.0 size=    1280KiB time=00:00:04.60 bitrate=2279.5kbits/s speed=0.107x elapsed=0:00:43.14    \nframe=  276 fps=6.3 q=40.0 size=    1280KiB time=00:00:04.60 bitrate=2279.5kbits/s speed=0.105x elapsed=0:00:43.69    \nframe=  276 fps=6.2 q=40.0 size=    1280KiB time=00:00:04.60 bitrate=2279.5kbits/s speed=0.104x elapsed=0:00:44.24    \nframe=  276 fps=6.2 q=40.0 size=    1280KiB time=00:00:04.60 bitrate=2279.5kbits/s speed=0.103x elapsed=0:00:44.78    \nframe=  276 fps=6.1 q=40.0 size=    1280KiB time=00:00:04.60 bitrate=2279.5kbits/s speed=0.101x elapsed=0:00:45.42    \nframe=  276 fps=6.0 q=40.0 size=    1280KiB time=00:00:04.60 bitrate=2279.5kbits/s speed=0.0999x elapsed=0:00:46.04    \nframe=  276 fps=5.9 q=40.0 size=    1280KiB time=00:00:04.60 bitrate=2279.5kbits/s speed=0.0988x elapsed=0:00:46.58    \nframe=  276 fps=5.9 q=40.0 size=    1280KiB time=00:00:04.60 bitrate=2279.5kbits/s speed=0.0976x elapsed=0:00:47.11    \nframe=  276 fps=5.8 q=40.0 size=    1280KiB time=00:00:04.60 bitrate=2279.5kbits/s speed=0.0965x elapsed=0:00:47.67    \nframe=  276 fps=5.7 q=40.0 size=    1280KiB time=00:00:04.60 bitrate=2279.5kbits/s speed=0.0954x elapsed=0:00:48.22    \n[out#0/webm @ 00000298b8b39100] video:1660KiB audio:0KiB subtitle:0KiB other streams:0KiB global headers:0KiB muxing overhead: 0.167218%\nframe=  300 fps=6.2 q=39.0 Lsize=    1663KiB time=00:00:05.00 bitrate=2723.9kbits/s speed=0.103x elapsed=0:00:48.65    \n",
  "seconds": 49.20640802383423,
  "probe_out": {}
}